<svg
    width="300"
    height="300"
    viewBox="0 0 300 300"
    fill="none"
    xmlns="http://www.w3.org/2000/svg"
>
    <!-- Hintergrund mit Schatten für mehr Tiefe -->
    <defs>
        <filter id="paperShadow" x="-20%" y="-20%" width="140%" height="140%">
            <feDropShadow dx="5" dy="5" stdDeviation="4" flood-color="#AAA"/>
        </filter>
    </defs>
    
    <!-- Zettel-Hintergrund mit Schatten -->
    <path
        d="M50,20 Q20,30 20,50 V250 Q20,280 50,280 H250 Q280,280 280,250 V50 Q280,20 250,20 H50 Z"
        fill="#FDF5E6"
        stroke="#D4AF70"
        stroke-width="3"
        filter="url(#paperShadow)"
    />
    
    <!-- Eselsohr-Effekt -->
    <path
        d="M250,20 Q270,40 270,60 L250,40 Z"
        fill="#EAD7A4"
    />
    
    <!-- Papierstruktur mit sichtbaren Knitterlinien -->
    <path d="M60 50 C70 60, 90 40, 110 60" stroke="#A0794D" stroke-width="2.5" fill="none"/>
    <path d="M120 80 C130 90, 150 70, 170 90" stroke="#A0794D" stroke-width="2.5" fill="none"/>
    <path d="M180 120 C190 130, 210 110, 230 130" stroke="#A0794D" stroke-width="2.5" fill="none"/>
    <path d="M80 180 C90 190, 110 170, 130 190" stroke="#A0794D" stroke-width="2.5" fill="none"/>
</svg>
